<?xml version="1.0" standalone="no"?>
<!DOCTYPE svg PUBLIC "-//W3C//DTD SVG 20010904//EN"
 "http://www.w3.org/TR/2001/REC-SVG-20010904/DTD/svg10.dtd">
<svg version="1.0" xmlns="http://www.w3.org/2000/svg"
 width="100.000000pt" height="100.000000pt" viewBox="0 0 100.000000 100.000000"
 preserveAspectRatio="xMidYMid meet">

<g transform="translate(0.000000,100.000000) scale(0.100000,-0.100000)"
fill="#000000" stroke="none">
<path d="M498 950 c-16 -4 -40 -17 -54 -27 -22 -16 -33 -18 -63 -10 -48 13
-104 2 -138 -28 -21 -17 -25 -27 -17 -35 9 -9 21 -6 50 9 44 24 67 26 112 10
27 -9 36 -8 64 12 17 13 52 28 77 35 27 6 46 17 46 25 0 17 -39 21 -77 9z"/>
<path d="M714 939 c-36 -40 -78 -63 -134 -75 -36 -7 -55 -16 -55 -25 0 -20 83
-16 130 7 47 22 108 79 103 95 -7 21 -24 20 -44 -2z"/>
<path d="M156 708 c-4 -51 -9 -119 -12 -150 l-6 -58 -49 0 -49 0 0 -230 0
-230 460 0 460 0 -2 307 -3 307 -95 73 c-52 41 -100 71 -107 69 -7 -3 -53 -37
-103 -76 l-90 -72 0 -74 0 -74 -119 0 -119 0 -6 58 c-3 31 -8 99 -12 150 l-6
92 -68 0 -68 0 -6 -92z m108 -10 c3 -35 8 -93 11 -130 l6 -68 -31 0 c-23 0
-30 -4 -30 -20 0 -19 7 -20 190 -20 l190 0 0 84 0 85 78 60 c42 34 80 61 83
61 4 0 41 -27 83 -60 l76 -60 0 -275 0 -275 -420 0 -420 0 0 190 0 190 49 0
49 0 6 93 c14 206 15 207 46 207 28 0 29 -2 34 -62z"/>
<path d="M660 500 c0 -33 3 -40 20 -40 17 0 20 7 20 40 0 33 -3 40 -20 40 -17
0 -20 -7 -20 -40z"/>
<path d="M740 500 c0 -33 3 -40 20 -40 17 0 20 7 20 40 0 33 -3 40 -20 40 -17
0 -20 -7 -20 -40z"/>
<path d="M820 500 c0 -33 3 -40 20 -40 17 0 20 7 20 40 0 33 -3 40 -20 40 -17
0 -20 -7 -20 -40z"/>
<path d="M140 380 c0 -17 7 -20 40 -20 33 0 40 3 40 20 0 17 -7 20 -40 20 -33
0 -40 -3 -40 -20z"/>
<path d="M260 380 c0 -17 7 -20 40 -20 33 0 40 3 40 20 0 17 -7 20 -40 20 -33
0 -40 -3 -40 -20z"/>
<path d="M380 380 c0 -17 7 -20 40 -20 33 0 40 3 40 20 0 17 -7 20 -40 20 -33
0 -40 -3 -40 -20z"/>
<path d="M500 380 c0 -17 7 -20 40 -20 33 0 40 3 40 20 0 17 -7 20 -40 20 -33
0 -40 -3 -40 -20z"/>
<path d="M660 360 c0 -33 3 -40 20 -40 17 0 20 7 20 40 0 33 -3 40 -20 40 -17
0 -20 -7 -20 -40z"/>
<path d="M740 360 c0 -33 3 -40 20 -40 17 0 20 7 20 40 0 33 -3 40 -20 40 -17
0 -20 -7 -20 -40z"/>
<path d="M820 360 c0 -33 3 -40 20 -40 17 0 20 7 20 40 0 33 -3 40 -20 40 -17
0 -20 -7 -20 -40z"/>
<path d="M660 220 c0 -33 3 -40 20 -40 17 0 20 7 20 40 0 33 -3 40 -20 40 -17
0 -20 -7 -20 -40z"/>
<path d="M740 220 c0 -33 3 -40 20 -40 17 0 20 7 20 40 0 33 -3 40 -20 40 -17
0 -20 -7 -20 -40z"/>
<path d="M820 220 c0 -33 3 -40 20 -40 17 0 20 7 20 40 0 33 -3 40 -20 40 -17
0 -20 -7 -20 -40z"/>
</g>
</svg>
